<svg width="138" height="138" viewBox="0 0 138 138" fill="none" xmlns="http://www.w3.org/2000/svg">
<rect width="138" height="138" rx="20" fill="#F0EACB"/>
<path fill-rule="evenodd" clip-rule="evenodd" d="M57.1795 31C59.7148 31 62.2502 31.2983 65.2329 32.044V48.8966H58.5217C45.3975 48.8966 37.1949 55.9061 37.1949 70.2234V106.017H19V32.4914H36.1509L37.1949 43.2294C40.3268 35.9216 47.3363 31 57.1795 31ZM81.2864 31C78.751 31 76.2157 31.2983 73.2329 32.044V48.8966H79.9442C93.0683 48.8966 101.271 55.9061 101.271 70.2234V106.017H119.466V32.4914H102.315L101.271 43.2294C98.139 35.9216 91.1295 31 81.2864 31Z" fill="#3954A5"/>
</svg>
