<svg width="1004" height="392" viewBox="0 0 1004 392" fill="none" xmlns="http://www.w3.org/2000/svg">
<path d="M5.87973e-05 359.394C2.75984 360.154 6.21256 358.761 9.80021 356.153C26.3157 344.146 43.6914 322.904 59.6554 308.457C157.735 219.692 258.306 125.907 359.458 51.1294C420.905 5.70338 484.762 -12.4772 524.561 14.9247C561.215 40.1617 572.228 96.2568 547.045 169.025C521.538 242.731 466.023 337.697 403.338 381.334C402.619 381.835 380.716 396.061 384.951 384.968C394.461 360.061 436.527 332.22 451.456 321.326C496.69 288.318 540.01 265.767 583.562 253.096C670.481 227.807 754.145 217.414 836.772 206.531C886.66 199.96 935.366 196.076 983.521 194.272C986.836 194.148 997.916 195.302 1001.1 190.506" stroke="#84A59D" stroke-width="4" stroke-linecap="round"/>
</svg>
